<?xml version="1.0" standalone="no"?><svg xmlns="http://www.w3.org/2000/svg" viewBox="0 0 1440 320"><path fill="#E1FFDD" fill-opacity="1" d="M0,64L17.1,53.3C34.3,43,69,21,103,26.7C137.1,32,171,64,206,85.3C240,107,274,117,309,117.3C342.9,117,377,107,411,128C445.7,149,480,203,514,208C548.6,213,583,171,617,176C651.4,181,686,235,720,240C754.3,245,789,203,823,160C857.1,117,891,75,926,53.3C960,32,994,32,1029,48C1062.9,64,1097,96,1131,138.7C1165.7,181,1200,235,1234,250.7C1268.6,267,1303,245,1337,213.3C1371.4,181,1406,139,1423,117.3L1440,96L1440,320L1422.9,320C1405.7,320,1371,320,1337,320C1302.9,320,1269,320,1234,320C1200,320,1166,320,1131,320C1097.1,320,1063,320,1029,320C994.3,320,960,320,926,320C891.4,320,857,320,823,320C788.6,320,754,320,720,320C685.7,320,651,320,617,320C582.9,320,549,320,514,320C480,320,446,320,411,320C377.1,320,343,320,309,320C274.3,320,240,320,206,320C171.4,320,137,320,103,320C68.6,320,34,320,17,320L0,320Z"></path></svg>